<svg version="1.1" id="Layer_1" xmlns="http://www.w3.org/2000/svg" xmlns:xlink="http://www.w3.org/1999/xlink" x="0px" y="0px"
	 width="100%" viewBox="0 0 1024 1024" enable-background="new 0 0 1024 1024" xml:space="preserve">
<path fill="#FFFFFF" opacity="1.000000" stroke="none" 
	d="
M574.000000,1025.000000 
	C382.666656,1025.000000 191.833328,1025.000000 1.000000,1025.000000 
	C1.000000,683.666687 1.000000,342.333344 1.000000,1.000000 
	C342.333344,1.000000 683.666687,1.000000 1025.000000,1.000000 
	C1025.000000,342.333344 1025.000000,683.666687 1025.000000,1025.000000 
	C874.833313,1025.000000 724.666687,1025.000000 574.000000,1025.000000 
M852.976562,826.010132 
	C853.097961,825.726501 853.173523,825.431213 853.069275,825.055298 
	C853.069275,825.055298 853.164062,825.172302 853.770691,824.885498 
	C854.923096,822.968384 856.075500,821.051270 857.107300,819.070374 
	C857.107300,819.070374 857.176453,819.187988 857.708374,818.948547 
	C857.960693,818.429077 858.213013,817.909668 858.040405,817.334717 
	C858.040405,817.334717 858.466125,817.365540 858.887085,817.071472 
	C858.985229,816.746765 859.083313,816.422058 859.068726,816.060120 
	C859.068726,816.060120 859.138733,816.156128 859.722595,815.789124 
	C861.994995,811.127991 864.267395,806.466919 866.775879,801.545105 
	C866.775879,801.545105 866.780884,801.193420 867.098694,800.633057 
	C870.025330,789.760315 872.951965,778.887573 876.072632,767.203796 
	C876.324219,764.461853 876.575806,761.719910 876.971924,758.051392 
	C876.989319,621.185059 877.016724,484.318726 877.015198,347.452393 
	C877.014893,321.314758 876.900696,295.177124 876.984497,268.162781 
	C876.170166,254.173538 873.194458,240.605331 867.893982,227.688782 
	C860.237671,209.031326 849.445557,192.484009 833.080017,179.354538 
	C832.747498,179.186874 832.415039,179.019226 832.038635,178.969666 
	C832.038635,178.969666 832.128052,178.880890 831.854797,178.284454 
	C830.263000,177.153549 828.671204,176.022659 827.016907,174.993546 
	C827.016907,174.993546 827.106506,174.914520 826.794373,174.321640 
	C824.886292,173.168045 822.978210,172.014465 821.038086,170.967148 
	C821.038086,170.967148 821.121155,170.893524 820.758545,170.318146 
	C818.548035,169.139343 816.337585,167.960541 814.059082,166.907669 
	C814.059082,166.907669 814.177917,166.827896 813.847961,166.230362 
	C811.999268,165.360138 810.150574,164.489914 808.219666,163.984711 
	C808.219666,163.984711 808.277405,163.616287 807.844849,163.108261 
	C806.591553,162.683182 805.338196,162.258102 804.049805,161.941910 
	C804.049805,161.941910 804.141846,161.873993 803.726868,161.292343 
	C800.379089,160.012589 797.031250,158.732849 793.455322,157.306931 
	C793.455322,157.306931 793.184753,157.321548 792.590881,156.976685 
	C778.755676,152.556885 764.619446,150.093018 750.053406,150.093811 
	C592.574707,150.102463 435.096008,150.057022 277.617310,150.099564 
	C260.575989,150.104172 243.872025,152.424652 227.264053,159.084732 
	C194.786301,171.944611 171.850754,194.546265 158.567398,226.812149 
	C153.013229,240.303513 149.317993,254.297089 148.960175,269.874023 
	C148.795090,273.025269 148.486221,276.176514 148.485641,279.327789 
	C148.462418,405.240112 148.417831,531.152466 148.499893,657.064758 
	C148.522888,692.359497 148.929321,727.654053 149.070923,763.792786 
	C150.041183,769.318298 150.722305,774.913391 152.032455,780.357117 
	C157.317535,802.317139 167.242432,821.847351 183.038269,838.272461 
	C183.038269,838.272461 183.078506,838.314148 183.226105,838.655212 
	C183.226105,838.655212 183.551773,838.834167 183.785187,839.228577 
	C184.233047,839.633057 184.680908,840.037476 185.291519,840.722351 
	C185.291519,840.722351 185.576111,840.877686 185.866058,841.323120 
	C186.653107,842.035828 187.440155,842.748596 188.398560,843.702087 
	C188.398560,843.702087 188.669724,843.819580 188.817307,844.090332 
	C188.950714,844.258545 189.122177,844.366028 189.445663,844.515320 
	C189.445663,844.515320 189.536362,844.638916 189.894043,845.135071 
	C191.217010,846.145203 192.539993,847.155273 193.955673,848.057495 
	C193.955673,848.057495 193.827301,848.118652 194.024475,848.615723 
	C194.335358,848.771851 194.646255,848.928040 194.989609,849.004761 
	C194.989609,849.004761 194.925323,849.061707 195.217606,849.659241 
	C197.057999,850.887634 198.898407,852.116028 200.995895,853.037598 
	C200.995895,853.037598 200.722168,853.329407 200.929581,853.774658 
	C201.349350,854.023987 201.769119,854.273376 202.382172,854.731323 
	C202.382172,854.731323 202.648300,854.831543 203.032791,855.198181 
	C203.664688,855.502441 204.296600,855.806702 204.977936,856.012329 
	C204.977936,856.012329 204.893127,856.082886 205.236481,856.669922 
	C207.454071,857.846985 209.671677,859.024048 211.947327,860.088318 
	C211.947327,860.088318 211.837204,860.151306 212.157486,860.765808 
	C232.361008,871.905212 254.119232,876.593689 277.057953,876.604675 
	C413.282928,876.669739 549.507935,876.815552 685.732910,876.825684 
	C711.866394,876.827576 738.006836,876.606689 764.128845,875.915405 
	C771.155334,875.729492 778.126099,873.435913 785.031738,872.062317 
	C785.031738,872.062317 785.067200,872.158386 785.774536,872.115295 
	C786.557495,871.780823 787.340454,871.446411 788.029846,871.063477 
	C788.029846,871.063477 788.071106,871.160522 788.682800,871.112671 
	C794.200500,868.983765 799.718201,866.854797 805.512146,864.713135 
	C805.512146,864.713135 805.737244,864.552490 806.136719,864.394592 
	C806.509705,864.190063 806.882690,863.985535 807.529785,863.736816 
	C807.529785,863.736816 807.746277,863.562927 808.271973,863.318787 
	C808.900146,862.925781 809.528381,862.532715 810.063049,862.086121 
	C810.063049,862.086121 810.091370,862.190063 810.704285,862.111511 
	C811.181030,861.779785 811.657776,861.448120 812.042725,861.045105 
	C812.042725,861.045105 812.082764,861.154297 812.552734,861.100159 
	C812.890259,861.069092 813.154297,860.913391 813.467163,860.554565 
	C813.467163,860.554565 813.601318,860.498474 814.153198,860.233398 
	C815.530579,859.377258 816.907959,858.521179 818.467224,857.601440 
	C818.467224,857.601440 818.626770,857.493286 819.201050,857.203552 
	C821.179321,855.840881 823.157654,854.478210 825.020935,853.025085 
	C825.020935,853.025085 825.105225,853.144653 825.645020,853.023132 
	C826.224792,852.582031 826.804626,852.140991 827.514587,851.595398 
	C827.514587,851.595398 827.653687,851.502930 828.110229,851.247559 
	C828.447693,850.865295 828.785156,850.483093 829.035278,850.032349 
	C829.035278,850.032349 829.074280,850.136292 829.602295,850.019104 
	C829.823792,849.754028 830.045349,849.489014 830.128357,849.162109 
	C830.128357,849.162109 830.214539,849.286926 830.835999,849.109253 
	C831.944946,848.120300 833.053894,847.131348 834.012878,846.032837 
	C834.012878,846.032837 834.139343,846.168762 834.753052,845.944702 
	C836.291809,844.457520 837.830566,842.970337 839.287170,841.337219 
	C839.287170,841.337219 839.428589,841.427124 839.957458,841.244507 
	C840.462463,840.720337 840.967468,840.196106 841.546570,839.546326 
	C841.546570,839.546326 841.663147,839.458801 842.162842,839.095398 
	C843.502747,837.449951 844.842712,835.804504 846.068481,834.050781 
	C846.068481,834.050781 846.135132,834.193237 846.641907,834.013184 
	C846.819519,833.711426 846.997192,833.409668 847.048828,833.047974 
	C847.048828,833.047974 847.138977,833.154419 847.709900,832.908447 
	C848.281067,832.063660 848.852234,831.218872 849.190308,829.959778 
	C849.190308,829.959778 849.445068,830.362122 849.938782,830.058472 
	C850.340515,829.408997 850.742249,828.759460 851.022888,828.014587 
	C851.022888,828.014587 851.117737,828.136108 851.624573,827.938904 
	C851.921326,827.490234 852.218079,827.041565 852.572266,826.457336 
	C852.572266,826.457336 852.653381,826.334412 852.976562,826.010132 
z"/>
<path fill="#0067D9" opacity="1.000000" stroke="none" 
	d="
M833.325806,179.868500 
	C849.445557,192.484009 860.237671,209.031326 867.893982,227.688782 
	C873.194458,240.605331 876.170166,254.173538 876.647949,268.917175 
	C876.209290,271.156525 876.017883,272.641541 876.017761,274.126526 
	C876.007141,433.819855 876.008118,593.513184 876.047546,753.206482 
	C876.048035,755.130371 876.556152,757.054138 876.827271,758.977966 
	C876.575806,761.719910 876.324219,764.461853 875.660217,767.803833 
	C874.887146,768.943909 874.356689,769.436584 874.191223,770.030945 
	C871.558533,779.484253 868.945312,788.943237 866.423035,798.426270 
	C866.201843,799.258118 866.645935,800.266846 866.780884,801.193420 
	C866.780884,801.193420 866.775879,801.545105 866.327026,801.553528 
	C863.631714,806.426697 861.385254,811.291443 859.138794,816.156128 
	C859.138733,816.156128 859.068726,816.060120 858.866089,816.192017 
	C858.597656,816.671143 858.531860,817.018311 858.466125,817.365540 
	C858.466125,817.365540 858.040405,817.334717 857.917114,817.377563 
	C857.588074,818.009583 857.382263,818.598816 857.176453,819.187988 
	C857.176453,819.187988 857.107300,819.070374 856.828247,819.191406 
	C855.420776,821.265747 854.292358,823.218994 853.164062,825.172241 
	C853.164062,825.172302 853.069275,825.055298 852.880676,825.194580 
	C852.679138,825.667358 852.666260,826.000854 852.653381,826.334412 
	C852.653381,826.334412 852.572266,826.457336 852.217712,826.463074 
	C851.614685,827.024536 851.366211,827.580322 851.117676,828.136108 
	C851.117737,828.136108 851.022888,828.014587 850.725586,828.084290 
	C850.100586,828.890015 849.772827,829.626099 849.445068,830.362122 
	C849.445068,830.362122 849.190308,829.959778 848.951782,830.159607 
	C848.188477,831.291077 847.663757,832.222778 847.139038,833.154419 
	C847.138977,833.154419 847.048828,833.047974 846.853821,833.163818 
	C846.484253,833.584229 846.309692,833.888733 846.135132,834.193237 
	C846.135132,834.193237 846.068481,834.050781 845.766602,834.091492 
	C844.197510,835.907715 842.930298,837.683289 841.663147,839.458801 
	C841.663147,839.458801 841.546570,839.546326 841.180664,839.494751 
	C840.352661,840.104553 839.890625,840.765808 839.428589,841.427124 
	C839.428589,841.427124 839.287170,841.337219 838.969971,841.290894 
	C837.148315,842.885986 835.643799,844.527344 834.139282,846.168701 
	C834.139343,846.168762 834.012878,846.032837 833.738403,846.076660 
	C832.380859,847.175964 831.297729,848.231506 830.214600,849.286987 
	C830.214539,849.286926 830.128357,849.162109 829.925110,849.228333 
	C829.505981,849.575134 829.290161,849.855713 829.074280,850.136292 
	C829.074280,850.136292 829.035278,850.032349 828.748535,850.073364 
	C828.192383,850.577209 827.923035,851.040039 827.653687,851.502930 
	C827.653687,851.502930 827.514587,851.595398 827.124268,851.477295 
	C826.191101,851.954346 825.648193,852.549561 825.105225,853.144653 
	C825.105225,853.144653 825.020935,853.025085 824.702637,853.040344 
	C822.465088,854.534790 820.545898,856.014038 818.626709,857.493286 
	C818.626770,857.493286 818.467224,857.601440 818.037842,857.455505 
	C816.272705,858.372498 814.937012,859.435486 813.601318,860.498474 
	C813.601318,860.498474 813.467163,860.554565 813.147705,860.488037 
	C812.579712,860.665771 812.331238,860.910034 812.082764,861.154297 
	C812.082764,861.154297 812.042725,861.045105 811.767578,861.068726 
	C811.025391,861.458191 810.558350,861.824097 810.091370,862.190063 
	C810.091370,862.190063 810.063049,862.086121 809.739441,862.077209 
	C808.859314,862.566528 808.302795,863.064758 807.746277,863.562927 
	C807.746277,863.562927 807.529785,863.736816 807.101196,863.562134 
	C806.360840,863.775757 806.049072,864.164124 805.737244,864.552490 
	C805.737244,864.552490 805.512146,864.713135 805.023743,864.526489 
	C799.047302,866.613403 793.559204,868.886963 788.071106,871.160522 
	C788.071106,871.160522 788.029846,871.063477 787.722351,871.061829 
	C786.632324,871.426208 785.849731,871.792297 785.067200,872.158386 
	C785.067200,872.158386 785.031738,872.062317 784.640686,872.057434 
	C769.165588,874.675537 753.965881,875.088562 738.678589,875.077820 
	C585.287964,874.969849 431.897247,874.948425 278.506714,875.088135 
	C257.932770,875.106873 238.323166,871.436951 219.560699,863.051636 
	C217.054672,861.931580 214.414993,861.110718 211.837219,860.151245 
	C211.837204,860.151306 211.947327,860.088318 211.813538,859.808350 
	C209.417526,858.379944 207.155319,857.231445 204.893127,856.082886 
	C204.893127,856.082886 204.977936,856.012329 204.913147,855.701538 
	C204.115005,855.204285 203.381653,855.017944 202.648300,854.831543 
	C202.648300,854.831543 202.382172,854.731323 202.403702,854.312256 
	C201.857544,853.705322 201.289871,853.517334 200.722168,853.329346 
	C200.722168,853.329407 200.995895,853.037598 200.830688,852.833862 
	C198.752090,851.440613 196.838699,850.251160 194.925323,849.061707 
	C194.925323,849.061707 194.989609,849.004761 194.865631,848.801880 
	C194.436874,848.438843 194.132095,848.278748 193.827301,848.118652 
	C193.827301,848.118652 193.955673,848.057495 193.914841,847.752441 
	C192.428116,846.511230 190.982239,845.575073 189.536346,844.638916 
	C189.536362,844.638916 189.445663,844.515320 189.486389,844.211243 
	C189.241333,843.877991 188.955521,843.848755 188.669724,843.819580 
	C188.669724,843.819580 188.398560,843.702087 188.453827,843.255859 
	C187.531433,842.165649 186.553772,841.521667 185.576111,840.877686 
	C185.576111,840.877686 185.291519,840.722351 185.373672,840.276794 
	C184.821136,839.498901 184.186447,839.166504 183.551773,838.834167 
	C183.551773,838.834167 183.226105,838.655212 183.322784,838.378601 
	C183.278976,838.144958 183.138504,838.187866 182.998047,838.230835 
	C167.242432,821.847351 157.317535,802.317139 152.032455,780.357117 
	C150.722305,774.913391 150.041183,769.318298 149.383484,763.059937 
	C149.799728,760.841980 149.994125,759.356812 149.994232,757.871704 
	C150.005829,596.678528 150.005600,435.485321 149.966003,274.292114 
	C149.965576,272.539307 149.440063,270.786621 149.159683,269.033875 
	C149.317993,254.297089 153.013229,240.303513 158.567398,226.812149 
	C171.850754,194.546265 194.786301,171.944611 227.875168,159.313919 
	C230.701187,159.001328 232.897552,158.362686 235.134171,157.934296 
	C245.669174,155.916534 256.211334,152.254807 266.757874,152.230743 
	C427.227936,151.864410 587.699097,152.027481 748.169861,151.887817 
	C762.075745,151.875702 775.615845,153.282608 788.899780,157.364609 
	C790.200867,157.764404 791.750488,157.355240 793.184753,157.321564 
	C793.184753,157.321548 793.455322,157.306931 793.496216,157.738892 
	C797.072083,159.405212 800.606934,160.639603 804.141846,161.873993 
	C804.141846,161.873993 804.049805,161.941910 804.199951,162.230072 
	C805.659180,162.884262 806.968262,163.250275 808.277405,163.616287 
	C808.277405,163.616287 808.219666,163.984711 808.293579,164.168762 
	C810.304321,165.177841 812.241089,166.002853 814.177917,166.827881 
	C814.177917,166.827896 814.059082,166.907669 814.193604,167.182770 
	C816.592407,168.603104 818.856812,169.748306 821.121155,170.893524 
	C821.121155,170.893524 821.038086,170.967148 821.176575,171.236481 
	C823.245544,172.642044 825.176025,173.778290 827.106506,174.914520 
	C827.106506,174.914520 827.016907,174.993546 827.076599,175.288513 
	C828.800232,176.682617 830.464111,177.781754 832.128052,178.880890 
	C832.128052,178.880890 832.038635,178.969666 832.181396,179.171753 
	C832.658020,179.538712 832.991943,179.703598 833.325806,179.868500 
M399.337219,478.213562 
	C399.644501,478.449097 399.951782,478.684662 400.836823,479.242279 
	C420.543396,506.570068 440.132324,533.983765 460.012604,561.184692 
	C468.324219,572.556885 476.719543,583.953186 486.069702,594.454529 
	C493.804016,603.141113 504.317535,606.401184 516.207947,605.359314 
	C530.083130,604.143433 540.012817,596.550720 547.933044,586.110168 
	C560.264526,569.854858 572.021790,553.164734 584.082214,536.702759 
	C599.669250,515.427307 615.315186,494.194946 631.284729,473.713013 
	C631.518066,475.666107 631.953491,477.619049 631.955139,479.572327 
	C631.995117,528.133057 631.989685,576.693787 631.991455,625.254578 
	C631.992004,640.887146 631.964111,656.519836 632.041138,672.152039 
	C632.046997,673.340576 632.789246,674.525513 633.706116,676.307007 
	C635.229431,687.161194 639.655518,696.310852 649.316772,703.185791 
	C649.943726,703.412109 650.570679,703.638367 651.076294,703.889038 
	C651.076294,703.889038 651.093811,703.766479 651.302063,704.487000 
	C652.617310,704.822327 653.932617,705.157593 655.345764,705.480957 
	C655.345764,705.480957 655.442566,705.462280 655.439819,706.235962 
	C665.262695,711.410767 675.810669,710.050110 686.247498,709.595215 
	C686.488220,709.584717 686.694519,708.784546 687.743591,708.061279 
	C694.614624,706.379028 702.120300,705.925171 708.229919,702.769104 
	C722.745911,695.270630 728.181702,682.102112 728.144836,666.123718 
	C728.025269,614.332336 728.083740,562.540466 728.065002,510.748779 
	C728.045593,456.959351 728.128479,403.169403 727.897461,349.380859 
	C727.850342,338.412598 723.191528,329.217773 714.330688,322.333130 
	C706.254944,316.058502 696.497131,314.802063 686.780273,312.071472 
	C677.490906,308.865112 668.003662,309.660492 658.522217,310.767273 
	C657.329102,310.906555 656.213257,311.707672 654.584778,312.790741 
	C638.705200,315.342499 626.130249,323.186523 616.913147,336.370026 
	C586.768188,379.487213 556.641907,422.617462 526.485718,465.726837 
	C522.259399,471.768585 517.906189,477.721527 513.272095,484.189606 
	C511.869659,482.313049 510.866760,481.031250 509.926941,479.704742 
	C477.771637,434.316437 445.596863,388.941864 413.487061,343.521423 
	C403.372894,329.214600 391.447968,317.393707 373.567444,313.497314 
	C359.233337,310.373779 344.989166,311.340332 330.633362,313.932800 
	C315.410156,316.681885 304.218353,323.869019 298.448303,339.332214 
	C297.631134,343.457794 296.109253,347.582031 296.101349,351.709167 
	C295.957367,426.706726 295.989777,501.704620 296.030212,576.702454 
	C296.031158,578.458252 296.558380,580.213745 296.975494,582.901733 
	C296.960754,609.846558 296.870056,636.791687 296.982574,663.735962 
	C297.012177,670.827576 297.276459,677.839844 300.376282,684.641052 
	C305.070038,694.939636 312.219086,701.896179 323.155029,705.153870 
	C333.689484,708.291931 344.431122,708.550842 355.214386,707.946655 
	C372.132721,706.998596 387.621826,699.360046 392.806366,679.542358 
	C393.534546,675.373901 394.827057,671.211304 394.870728,667.035645 
	C394.955627,658.919556 394.071014,650.796509 394.057404,642.675598 
	C393.966003,588.047058 393.997803,533.418396 393.989716,478.789764 
	C393.989441,476.868591 393.989685,474.947418 393.989685,472.720062 
	C395.655182,474.005035 396.912994,474.975494 398.066406,475.949371 
	C398.066406,475.949371 398.089203,475.847443 398.098663,476.532898 
	C398.570038,476.892670 399.041412,477.252472 399.429596,477.747009 
	C399.429596,477.747009 399.357025,477.606262 399.337219,478.213562 
M729.992676,573.500000 
	C729.992676,499.775787 729.992676,426.051575 729.992676,352.327332 
	C729.761536,352.328156 729.530334,352.328979 729.299194,352.329803 
	C729.299194,458.180328 729.299194,564.030823 729.299194,669.881348 
	C729.530334,669.881775 729.761536,669.882202 729.992676,669.882629 
	C729.992676,638.088440 729.992676,606.294189 729.992676,573.500000 
M295.009766,649.498047 
	C295.009766,654.897766 295.009766,660.297485 295.009766,665.697266 
	C295.240936,665.686523 295.472076,665.675720 295.703247,665.664978 
	C295.703247,638.818604 295.703247,611.972168 295.703247,585.125793 
	C295.472046,585.125610 295.240814,585.125427 295.009613,585.125244 
	C295.009613,606.249817 295.009613,627.374329 295.009766,649.498047 
z"/>
<path fill="#1768D8" opacity="1.000000" stroke="none" 
	d="
M211.997345,860.458496 
	C214.414993,861.110718 217.054672,861.931580 219.560699,863.051636 
	C238.323166,871.436951 257.932770,875.106873 278.506714,875.088135 
	C431.897247,874.948425 585.287964,874.969849 738.678589,875.077820 
	C753.965881,875.088562 769.165588,874.675537 784.686035,872.081177 
	C778.126099,873.435913 771.155334,875.729492 764.128845,875.915405 
	C738.006836,876.606689 711.866394,876.827576 685.732910,876.825684 
	C549.507935,876.815552 413.282928,876.669739 277.057953,876.604675 
	C254.119232,876.593689 232.361008,871.905212 211.997345,860.458496 
z"/>
<path fill="#1C6BD8" opacity="1.000000" stroke="none" 
	d="
M792.887817,157.149124 
	C791.750488,157.355240 790.200867,157.764404 788.899780,157.364609 
	C775.615845,153.282608 762.075745,151.875702 748.169861,151.887817 
	C587.699097,152.027481 427.227936,151.864410 266.757874,152.230743 
	C256.211334,152.254807 245.669174,155.916534 235.134171,157.934296 
	C232.897552,158.362686 230.701187,159.001328 228.241089,159.314545 
	C243.872025,152.424652 260.575989,150.104172 277.617310,150.099564 
	C435.096008,150.057022 592.574707,150.102463 750.053406,150.093811 
	C764.619446,150.093018 778.755676,152.556885 792.887817,157.149124 
z"/>
<path fill="#0940CE" opacity="1.000000" stroke="none" 
	d="
M149.059937,269.453949 
	C149.440063,270.786621 149.965576,272.539307 149.966003,274.292114 
	C150.005600,435.485321 150.005829,596.678528 149.994232,757.871704 
	C149.994125,759.356812 149.799728,760.841980 149.427948,762.637878 
	C148.929321,727.654053 148.522888,692.359497 148.499893,657.064758 
	C148.417831,531.152466 148.462418,405.240112 148.485641,279.327789 
	C148.486221,276.176514 148.795090,273.025269 149.059937,269.453949 
z"/>
<path fill="#002ECB" opacity="1.000000" stroke="none" 
	d="
M876.899597,758.514648 
	C876.556152,757.054138 876.048035,755.130371 876.047546,753.206482 
	C876.008118,593.513184 876.007141,433.819855 876.017761,274.126526 
	C876.017883,272.641541 876.209290,271.156525 876.575256,269.355530 
	C876.900696,295.177124 877.014893,321.314758 877.015198,347.452393 
	C877.016724,484.318726 876.989319,621.185059 876.899597,758.514648 
z"/>
<path fill="#1768D8" opacity="1.000000" stroke="none" 
	d="
M866.939819,800.913208 
	C866.645935,800.266846 866.201843,799.258118 866.423035,798.426270 
	C868.945312,788.943237 871.558533,779.484253 874.191223,770.030945 
	C874.356689,769.436584 874.887146,768.943909 875.563232,768.209412 
	C872.951965,778.887573 870.025330,789.760315 866.939819,800.913208 
z"/>
<path fill="#1768D8" opacity="1.000000" stroke="none" 
	d="
M788.376953,871.136597 
	C793.559204,868.886963 799.047302,866.613403 804.885620,864.532837 
	C799.718201,866.854797 794.200500,868.983765 788.376953,871.136597 
z"/>
<path fill="#1768D8" opacity="1.000000" stroke="none" 
	d="
M859.430664,815.972656 
	C861.385254,811.291443 863.631714,806.426697 866.208984,801.683838 
	C864.267395,806.466919 861.994995,811.127991 859.430664,815.972656 
z"/>
<path fill="#1C6BD8" opacity="1.000000" stroke="none" 
	d="
M803.934326,161.583160 
	C800.606934,160.639603 797.072083,159.405212 793.610352,157.811981 
	C797.031250,158.732849 800.379089,160.012589 803.934326,161.583160 
z"/>
<path fill="#1768D8" opacity="1.000000" stroke="none" 
	d="
M834.446167,846.056702 
	C835.643799,844.527344 837.148315,842.885986 839.011108,841.363892 
	C837.830566,842.970337 836.291809,844.457520 834.446167,846.056702 
z"/>
<path fill="#1768D8" opacity="1.000000" stroke="none" 
	d="
M818.913879,857.348389 
	C820.545898,856.014038 822.465088,854.534790 824.760132,853.085571 
	C823.157654,854.478210 821.179321,855.840881 818.913879,857.348389 
z"/>
<path fill="#1768D8" opacity="1.000000" stroke="none" 
	d="
M205.064789,856.376465 
	C207.155319,857.231445 209.417526,858.379944 211.784515,859.864746 
	C209.671677,859.024048 207.454071,857.846985 205.064789,856.376465 
z"/>
<path fill="#1768D8" opacity="1.000000" stroke="none" 
	d="
M841.912964,839.277100 
	C842.930298,837.683289 844.197510,835.907715 845.823608,834.145630 
	C844.842712,835.804504 843.502747,837.449951 841.912964,839.277100 
z"/>
<path fill="#1768D8" opacity="1.000000" stroke="none" 
	d="
M195.071472,849.360474 
	C196.838699,850.251160 198.752090,851.440613 200.702133,852.987305 
	C198.898407,852.116028 197.057999,850.887634 195.071472,849.360474 
z"/>
<path fill="#1C6BD8" opacity="1.000000" stroke="none" 
	d="
M820.939819,170.605835 
	C818.856812,169.748306 816.592407,168.603104 814.227539,167.119812 
	C816.337585,167.960541 818.548035,169.139343 820.939819,170.605835 
z"/>
<path fill="#1C6BD8" opacity="1.000000" stroke="none" 
	d="
M814.012939,166.529114 
	C812.241089,166.002853 810.304321,165.177841 808.334717,163.986252 
	C810.150574,164.489914 811.999268,165.360138 814.012939,166.529114 
z"/>
<path fill="#1768D8" opacity="1.000000" stroke="none" 
	d="
M853.467346,825.028870 
	C854.292358,823.218994 855.420776,821.265747 856.888550,819.223328 
	C856.075500,821.051270 854.923096,822.968384 853.467346,825.028870 
z"/>
<path fill="#1C6BD8" opacity="1.000000" stroke="none" 
	d="
M826.950439,174.618088 
	C825.176025,173.778290 823.245544,172.642044 821.192627,171.183350 
	C822.978210,172.014465 824.886292,173.168045 826.950439,174.618088 
z"/>
<path fill="#1768D8" opacity="1.000000" stroke="none" 
	d="
M189.715195,844.886963 
	C190.982239,845.575073 192.428116,846.511230 193.868484,847.806335 
	C192.539993,847.155273 191.217010,846.145203 189.715195,844.886963 
z"/>
<path fill="#1768D8" opacity="1.000000" stroke="none" 
	d="
M813.877258,860.365967 
	C814.937012,859.435486 816.272705,858.372498 817.946899,857.487305 
	C816.907959,858.521179 815.530579,859.377258 813.877258,860.365967 
z"/>
<path fill="#1C6BD8" opacity="1.000000" stroke="none" 
	d="
M831.991455,178.582672 
	C830.464111,177.781754 828.800232,176.682617 827.107849,175.237625 
	C828.671204,176.022659 830.263000,177.153549 831.991455,178.582672 
z"/>
<path fill="#1768D8" opacity="1.000000" stroke="none" 
	d="
M830.525269,849.198120 
	C831.297729,848.231506 832.380859,847.175964 833.813354,846.131409 
	C833.053894,847.131348 831.944946,848.120300 830.525269,849.198120 
z"/>
<path fill="#1C6BD8" opacity="1.000000" stroke="none" 
	d="
M808.061157,163.362274 
	C806.968262,163.250275 805.659180,162.884262 804.217468,162.175629 
	C805.338196,162.258102 806.591553,162.683182 808.061157,163.362274 
z"/>
<path fill="#1768D8" opacity="1.000000" stroke="none" 
	d="
M185.721085,841.100403 
	C186.553772,841.521667 187.531433,842.165649 188.368134,843.135498 
	C187.440155,842.748596 186.653107,842.035828 185.721085,841.100403 
z"/>
<path fill="#1768D8" opacity="1.000000" stroke="none" 
	d="
M847.424438,833.031494 
	C847.663757,832.222778 848.188477,831.291077 849.068359,830.366821 
	C848.852234,831.218872 848.281067,832.063660 847.424438,833.031494 
z"/>
<path fill="#1768D8" opacity="1.000000" stroke="none" 
	d="
M849.691895,830.210327 
	C849.772827,829.626099 850.100586,828.890015 850.786133,828.131958 
	C850.742249,828.759460 850.340515,829.408997 849.691895,830.210327 
z"/>
<path fill="#1768D8" opacity="1.000000" stroke="none" 
	d="
M202.840546,855.014893 
	C203.381653,855.017944 204.115005,855.204285 204.888428,855.750854 
	C204.296600,855.806702 203.664688,855.502441 202.840546,855.014893 
z"/>
<path fill="#1768D8" opacity="1.000000" stroke="none" 
	d="
M825.375122,853.083923 
	C825.648193,852.549561 826.191101,851.954346 827.059204,851.529541 
	C826.804626,852.140991 826.224792,852.582031 825.375122,853.083923 
z"/>
<path fill="#1768D8" opacity="1.000000" stroke="none" 
	d="
M785.420898,872.136841 
	C785.849731,871.792297 786.632324,871.426208 787.769165,871.086060 
	C787.340454,871.446411 786.557495,871.780823 785.420898,872.136841 
z"/>
<path fill="#1768D8" opacity="1.000000" stroke="none" 
	d="
M183.668488,839.031372 
	C184.186447,839.166504 184.821136,839.498901 185.292297,840.136597 
	C184.680908,840.037476 184.233047,839.633057 183.668488,839.031372 
z"/>
<path fill="#1768D8" opacity="1.000000" stroke="none" 
	d="
M839.692993,841.335815 
	C839.890625,840.765808 840.352661,840.104553 841.143555,839.557556 
	C840.967468,840.196106 840.462463,840.720337 839.692993,841.335815 
z"/>
<path fill="#1768D8" opacity="1.000000" stroke="none" 
	d="
M808.009155,863.440857 
	C808.302795,863.064758 808.859314,862.566528 809.786194,862.104004 
	C809.528381,862.532715 808.900146,862.925781 808.009155,863.440857 
z"/>
<path fill="#1768D8" opacity="1.000000" stroke="none" 
	d="
M827.881958,851.375244 
	C827.923035,851.040039 828.192383,850.577209 828.792175,850.107666 
	C828.785156,850.483093 828.447693,850.865295 827.881958,851.375244 
z"/>
<path fill="#1768D8" opacity="1.000000" stroke="none" 
	d="
M805.937012,864.473511 
	C806.049072,864.164124 806.360840,863.775757 806.964111,863.584229 
	C806.882690,863.985535 806.509705,864.190063 805.937012,864.473511 
z"/>
<path fill="#1768D8" opacity="1.000000" stroke="none" 
	d="
M810.397827,862.150757 
	C810.558350,861.824097 811.025391,861.458191 811.813477,861.104370 
	C811.657776,861.448120 811.181030,861.779785 810.397827,862.150757 
z"/>
<path fill="#1768D8" opacity="1.000000" stroke="none" 
	d="
M857.442383,819.068237 
	C857.382263,818.598816 857.588074,818.009583 858.129578,817.405273 
	C858.213013,817.909668 857.960693,818.429077 857.442383,819.068237 
z"/>
<path fill="#1768D8" opacity="1.000000" stroke="none" 
	d="
M200.825882,853.552002 
	C201.289871,853.517334 201.857544,853.705322 202.307068,854.208008 
	C201.769119,854.273376 201.349350,854.023987 200.825882,853.552002 
z"/>
<path fill="#1768D8" opacity="1.000000" stroke="none" 
	d="
M851.371094,828.037476 
	C851.366211,827.580322 851.614685,827.024536 852.188965,826.530884 
	C852.218079,827.041565 851.921326,827.490234 851.371094,828.037476 
z"/>
<path fill="#1768D8" opacity="1.000000" stroke="none" 
	d="
M846.388550,834.103210 
	C846.309692,833.888733 846.484253,833.584229 846.916870,833.193848 
	C846.997192,833.409668 846.819519,833.711426 846.388550,834.103210 
z"/>
<path fill="#1C6BD8" opacity="1.000000" stroke="none" 
	d="
M833.202881,179.611511 
	C832.991943,179.703598 832.658020,179.538712 832.203369,179.112701 
	C832.415039,179.019226 832.747498,179.186874 833.202881,179.611511 
z"/>
<path fill="#1768D8" opacity="1.000000" stroke="none" 
	d="
M829.338257,850.077698 
	C829.290161,849.855713 829.505981,849.575134 829.994385,849.259277 
	C830.045349,849.489014 829.823792,849.754028 829.338257,850.077698 
z"/>
<path fill="#1768D8" opacity="1.000000" stroke="none" 
	d="
M852.814941,826.172241 
	C852.666260,826.000854 852.679138,825.667358 852.947632,825.229004 
	C853.173523,825.431213 853.097961,825.726501 852.814941,826.172241 
z"/>
<path fill="#1768D8" opacity="1.000000" stroke="none" 
	d="
M812.317749,861.127197 
	C812.331238,860.910034 812.579712,860.665771 813.086487,860.527283 
	C813.154297,860.913391 812.890259,861.069092 812.317749,861.127197 
z"/>
<path fill="#1768D8" opacity="1.000000" stroke="none" 
	d="
M193.925903,848.367188 
	C194.132095,848.278748 194.436874,848.438843 194.849396,848.841614 
	C194.646255,848.928040 194.335358,848.771851 193.925903,848.367188 
z"/>
<path fill="#1768D8" opacity="1.000000" stroke="none" 
	d="
M188.743515,843.954956 
	C188.955521,843.848755 189.241333,843.877991 189.429413,844.160034 
	C189.122177,844.366028 188.950714,844.258545 188.743515,843.954956 
z"/>
<path fill="#1768D8" opacity="1.000000" stroke="none" 
	d="
M858.676636,817.218506 
	C858.531860,817.018311 858.597656,816.671143 858.922485,816.210693 
	C859.083313,816.422058 858.985229,816.746765 858.676636,817.218506 
z"/>
<path fill="#1768D8" opacity="1.000000" stroke="none" 
	d="
M183.018158,838.251587 
	C183.138504,838.187866 183.278976,838.144958 183.248978,838.208069 
	C183.078506,838.314148 183.038269,838.272461 183.018158,838.251587 
z"/>
<path fill="#FFFFFF" opacity="1.000000" stroke="none" 
	d="
M299.181000,339.068726 
	C304.218353,323.869019 315.410156,316.681885 330.633362,313.932800 
	C344.989166,311.340332 359.233337,310.373779 373.567444,313.497314 
	C391.447968,317.393707 403.372894,329.214600 413.487061,343.521423 
	C445.596863,388.941864 477.771637,434.316437 509.926941,479.704742 
	C510.866760,481.031250 511.869659,482.313049 513.272095,484.189606 
	C517.906189,477.721527 522.259399,471.768585 526.485718,465.726837 
	C556.641907,422.617462 586.768188,379.487213 616.913147,336.370026 
	C626.130249,323.186523 638.705200,315.342499 655.286865,312.459137 
	C666.315491,312.351746 676.641968,312.575989 686.968445,312.800232 
	C696.497131,314.802063 706.254944,316.058502 714.330688,322.333130 
	C723.191528,329.217773 727.850342,338.412598 727.897461,349.380859 
	C728.128479,403.169403 728.045593,456.959351 728.065002,510.748779 
	C728.083740,562.540466 728.025269,614.332336 728.144836,666.123718 
	C728.181702,682.102112 722.745911,695.270630 708.229919,702.769104 
	C702.120300,705.925171 694.614624,706.379028 686.924194,708.178528 
	C675.632568,710.073303 665.439453,708.829712 655.442566,705.462280 
	C655.442566,705.462280 655.345764,705.480957 655.071228,705.265991 
	C653.562378,704.622803 652.328125,704.194641 651.093811,703.766479 
	C651.093811,703.766479 651.076294,703.889038 650.967590,703.602112 
	C650.271423,703.048645 649.683960,702.782104 649.096497,702.515564 
	C639.655518,696.310852 635.229431,687.161194 633.447998,675.559692 
	C633.131775,672.648254 633.023193,670.484009 633.022888,668.319824 
	C633.013367,603.997314 633.014526,539.674805 633.014038,475.352295 
	C633.014038,473.764862 633.014038,472.177429 633.014038,469.332184 
	C631.867004,471.325623 631.401367,472.134827 630.935791,472.944031 
	C615.315186,494.194946 599.669250,515.427307 584.082214,536.702759 
	C572.021790,553.164734 560.264526,569.854858 547.933044,586.110168 
	C540.012817,596.550720 530.083130,604.143433 516.207947,605.359314 
	C504.317535,606.401184 493.804016,603.141113 486.069702,594.454529 
	C476.719543,583.953186 468.324219,572.556885 460.012604,561.184692 
	C440.132324,533.983765 420.543396,506.570068 400.461731,478.814087 
	C399.843445,478.126038 399.600250,477.866150 399.357025,477.606262 
	C399.357025,477.606262 399.429596,477.747009 399.360962,477.407349 
	C398.891266,476.660919 398.490234,476.254181 398.089203,475.847443 
	C398.089203,475.847443 398.066406,475.949371 398.023956,475.607666 
	C396.335114,472.887329 394.688690,470.508698 393.042267,468.130035 
	C392.111542,469.974518 392.079285,471.551514 392.116760,473.126862 
	C392.385254,484.418762 392.883850,495.709839 392.908234,507.002045 
	C393.006714,552.572876 393.014526,598.144104 392.931000,643.714966 
	C392.908875,655.795837 392.441406,667.875977 392.178436,679.956421 
	C387.621826,699.360046 372.132721,706.998596 355.214386,707.946655 
	C344.431122,708.550842 333.689484,708.291931 323.155029,705.153870 
	C312.219086,701.896179 305.070038,694.939636 300.376282,684.641052 
	C297.276459,677.839844 297.012177,670.827576 296.982574,663.735962 
	C296.870056,636.791687 296.960754,609.846558 296.975677,581.972900 
	C296.986542,507.946991 296.933868,434.849731 297.102783,361.752960 
	C297.120270,354.190002 298.456604,346.630066 299.181000,339.068726 
z"/>
<path fill="#0540CF" opacity="1.000000" stroke="none" 
	d="
M729.992676,574.000000 
	C729.992676,606.294189 729.992676,638.088440 729.992676,669.882629 
	C729.761536,669.882202 729.530334,669.881775 729.299194,669.881348 
	C729.299194,564.030823 729.299194,458.180328 729.299194,352.329803 
	C729.530334,352.328979 729.761536,352.328156 729.992676,352.327332 
	C729.992676,426.051575 729.992676,499.775787 729.992676,574.000000 
z"/>
<path fill="#0940CE" opacity="1.000000" stroke="none" 
	d="
M392.492401,679.749390 
	C392.441406,667.875977 392.908875,655.795837 392.931000,643.714966 
	C393.014526,598.144104 393.006714,552.572876 392.908234,507.002045 
	C392.883850,495.709839 392.385254,484.418762 392.116760,473.126862 
	C392.079285,471.551514 392.111542,469.974518 393.042267,468.130035 
	C394.688690,470.508698 396.335114,472.887329 398.076172,475.605957 
	C396.912994,474.975494 395.655182,474.005035 393.989685,472.720062 
	C393.989685,474.947418 393.989441,476.868591 393.989716,478.789764 
	C393.997803,533.418396 393.966003,588.047058 394.057404,642.675598 
	C394.071014,650.796509 394.955627,658.919556 394.870728,667.035645 
	C394.827057,671.211304 393.534546,675.373901 392.492401,679.749390 
z"/>
<path fill="#0540CF" opacity="1.000000" stroke="none" 
	d="
M298.814636,339.200470 
	C298.456604,346.630066 297.120270,354.190002 297.102783,361.752960 
	C296.933868,434.849731 296.986542,507.946991 296.907990,581.506775 
	C296.558380,580.213745 296.031158,578.458252 296.030212,576.702454 
	C295.989777,501.704620 295.957367,426.706726 296.101349,351.709167 
	C296.109253,347.582031 297.631134,343.457794 298.814636,339.200470 
z"/>
<path fill="#0540CF" opacity="1.000000" stroke="none" 
	d="
M631.110229,473.328552 
	C631.401367,472.134827 631.867004,471.325623 633.014038,469.332184 
	C633.014038,472.177429 633.014038,473.764862 633.014038,475.352295 
	C633.014526,539.674805 633.013367,603.997314 633.022888,668.319824 
	C633.023193,670.484009 633.131775,672.648254 633.189575,675.262268 
	C632.789246,674.525513 632.046997,673.340576 632.041138,672.152039 
	C631.964111,656.519836 631.992004,640.887146 631.991455,625.254578 
	C631.989685,576.693787 631.995117,528.133057 631.955139,479.572327 
	C631.953491,477.619049 631.518066,475.666107 631.110229,473.328552 
z"/>
<path fill="#0540CF" opacity="1.000000" stroke="none" 
	d="
M295.009705,648.998474 
	C295.009613,627.374329 295.009613,606.249817 295.009613,585.125244 
	C295.240814,585.125427 295.472046,585.125610 295.703247,585.125793 
	C295.703247,611.972168 295.703247,638.818604 295.703247,665.664978 
	C295.472076,665.675720 295.240936,665.686523 295.009766,665.697266 
	C295.009766,660.297485 295.009766,654.897766 295.009705,648.998474 
z"/>
<path fill="#0540CF" opacity="1.000000" stroke="none" 
	d="
M686.874390,312.435852 
	C676.641968,312.575989 666.315491,312.351746 655.525269,312.164856 
	C656.213257,311.707672 657.329102,310.906555 658.522217,310.767273 
	C668.003662,309.660492 677.490906,308.865112 686.874390,312.435852 
z"/>
<path fill="#0540CF" opacity="1.000000" stroke="none" 
	d="
M655.441162,705.849121 
	C665.439453,708.829712 675.632568,710.073303 686.510864,708.324219 
	C686.694519,708.784546 686.488220,709.584717 686.247498,709.595215 
	C675.810669,710.050110 665.262695,711.410767 655.441162,705.849121 
z"/>
<path fill="#0540CF" opacity="1.000000" stroke="none" 
	d="
M651.197937,704.126709 
	C652.328125,704.194641 653.562378,704.622803 655.022278,705.271973 
	C653.932617,705.157593 652.617310,704.822327 651.197937,704.126709 
z"/>
<path fill="#0540CF" opacity="1.000000" stroke="none" 
	d="
M649.206665,702.850708 
	C649.683960,702.782104 650.271423,703.048645 651.028259,703.589966 
	C650.570679,703.638367 649.943726,703.412109 649.206665,702.850708 
z"/>
<path fill="#0940CE" opacity="1.000000" stroke="none" 
	d="
M398.093933,476.190186 
	C398.490234,476.254181 398.891266,476.660919 399.402527,477.339966 
	C399.041412,477.252472 398.570038,476.892670 398.093933,476.190186 
z"/>
<path fill="#0940CE" opacity="1.000000" stroke="none" 
	d="
M399.347107,477.909912 
	C399.600250,477.866150 399.843445,478.126038 400.172852,478.653076 
	C399.951782,478.684662 399.644501,478.449097 399.347107,477.909912 
z"/>
</svg>